<svg width="25" height="24" viewBox="0 0 25 24" fill="#fff" xmlns="http://www.w3.org/2000/svg">
<g clip-path="url(#clip0_267_5352)">
<mask id="mask0_267_5352" style="mask-type:alpha" maskUnits="userSpaceOnUse" x="2" y="-1" width="21" height="25">
<path d="M17.4086 0.0114002C17.3576 -0.0455998 15.5201 0.0339003 13.9211 1.7694C12.3221 3.5034 12.5681 5.4924 12.6041 5.5434C12.6401 5.5944 14.8841 5.6739 16.3166 3.6564C17.7491 1.6389 17.4596 0.0699002 17.4086 0.0114002ZM22.3796 17.6109C22.3076 17.4669 18.8921 15.7599 19.2101 12.4779C19.5281 9.1944 21.7226 8.2944 21.7571 8.1969C21.7916 8.0994 20.8616 7.0119 19.8761 6.4614C19.1526 6.07328 18.3517 5.85091 17.5316 5.8104C17.3696 5.8059 16.8071 5.6679 15.6506 5.9844C14.8886 6.1929 13.1711 6.8679 12.6986 6.8949C12.2246 6.9219 10.8146 6.1119 9.29813 5.8974C8.32763 5.7099 7.29863 6.0939 6.56213 6.3894C5.82713 6.6834 4.42913 7.5204 3.45113 9.7449C2.47313 11.9679 2.98463 15.4899 3.35063 16.5849C3.71663 17.6784 4.28813 19.4709 5.26013 20.7789C6.12413 22.2549 7.27013 23.2794 7.74863 23.6274C8.22713 23.9754 9.57713 24.2064 10.5131 23.7279C11.2661 23.2659 12.6251 23.0004 13.1621 23.0199C13.6976 23.0394 14.7536 23.2509 15.8351 23.8284C16.6916 24.1239 17.5016 24.0009 18.3131 23.6709C19.1246 23.3394 20.2991 22.0824 21.6701 19.5339C22.1906 18.3489 22.4276 17.7084 22.3796 17.6109Z" fill="#fff"/>
<path d="M17.4086 0.0114002C17.3576 -0.0455998 15.5201 0.0339003 13.9211 1.7694C12.3221 3.5034 12.5681 5.4924 12.6041 5.5434C12.6401 5.5944 14.8841 5.6739 16.3166 3.6564C17.7491 1.6389 17.4596 0.0699002 17.4086 0.0114002ZM22.3796 17.6109C22.3076 17.4669 18.8921 15.7599 19.2101 12.4779C19.5281 9.1944 21.7226 8.2944 21.7571 8.1969C21.7916 8.0994 20.8616 7.0119 19.8761 6.4614C19.1526 6.07328 18.3517 5.85091 17.5316 5.8104C17.3696 5.8059 16.8071 5.6679 15.6506 5.9844C14.8886 6.1929 13.1711 6.8679 12.6986 6.8949C12.2246 6.9219 10.8146 6.1119 9.29813 5.8974C8.32763 5.7099 7.29863 6.0939 6.56213 6.3894C5.82713 6.6834 4.42913 7.5204 3.45113 9.7449C2.47313 11.9679 2.98463 15.4899 3.35063 16.5849C3.71663 17.6784 4.28813 19.4709 5.26013 20.7789C6.12413 22.2549 7.27013 23.2794 7.74863 23.6274C8.22713 23.9754 9.57713 24.2064 10.5131 23.7279C11.2661 23.2659 12.6251 23.0004 13.1621 23.0199C13.6976 23.0394 14.7536 23.2509 15.8351 23.8284C16.6916 24.1239 17.5016 24.0009 18.3131 23.6709C19.1246 23.3394 20.2991 22.0824 21.6701 19.5339C22.1906 18.3489 22.4276 17.7084 22.3796 17.6109Z" fill="#fff"/>
</mask>
<g mask="url(#mask0_267_5352)">
<rect x="0.637695" y="-0.000488281" width="24" height="24" fill="#fff"/>
</g>
</g>
<defs>
<clipPath id="clip0_267_5352">
<rect width="24" height="24" fill="white" transform="translate(0.635742 -0.000488281)"/>
</clipPath>
</defs>
</svg>
