<svg width="25" height="24" viewBox="0 0 25 24" fill="#fff" xmlns="http://www.w3.org/2000/svg">
<mask id="mask0_267_5350" style="mask-type:alpha" maskUnits="userSpaceOnUse" x="1" y="0" width="23" height="23">
<path d="M23.2027 9.93673C23.3402 10.6731 23.4151 11.443 23.4151 12.2465C23.4151 18.5309 19.209 22.9995 12.8564 22.9995C11.4118 23 9.98119 22.7157 8.64641 22.1631C7.31163 21.6104 6.09882 20.8002 5.07729 19.7787C4.05576 18.7571 3.24552 17.5443 2.69287 16.2096C2.14023 14.8748 1.85601 13.4442 1.85645 11.9995C1.85601 10.5548 2.14023 9.12425 2.69287 7.78947C3.24552 6.45469 4.05576 5.24189 5.07729 4.22036C6.09882 3.19882 7.31163 2.38859 8.64641 1.83594C9.98119 1.28329 11.4118 0.999072 12.8564 0.999512C15.8266 0.999512 18.3084 2.09236 20.2125 3.86684L17.1116 6.96772V6.95989C15.9573 5.86034 14.4924 5.29604 12.8564 5.29604C9.22703 5.29604 6.27701 8.36227 6.27701 11.9928C6.27701 15.6222 9.22703 18.6952 12.8564 18.6952C16.1495 18.6952 18.3911 16.8123 18.8515 14.2266H12.8564V9.93673H23.2039H23.2027Z" fill="#fff"/>
</mask>
<g mask="url(#mask0_267_5350)">
<rect x="0.637695" y="-0.000488281" width="24" height="24" fill="#fff"/>
</g>
</svg>
